<?xml version="1.0" encoding="UTF-8"?>
<svg width="89px" height="89px" viewBox="0 0 89 89" version="1.1" xmlns="http://www.w3.org/2000/svg" xmlns:xlink="http://www.w3.org/1999/xlink">
    <!-- Generator: Sketch 63.1 (92452) - https://sketch.com -->
    <title>logo_symbol_chimps</title>
    <desc>Created with Sketch.</desc>
    <g id="Symbols" stroke="none" stroke-width="1" fill="none" fill-rule="evenodd">
        <g id="logo/symbol/chimps">
            <g id="logo_symbol_chimps">
                <polygon id="Fill-1" fill="#56BF98" points="0 89 89 89 89 0 0 0"></polygon>
                <path d="M44.4569822,13.6421703 C30.6573782,13.6421703 19.4173782,24.8784203 19.4173782,38.6734203 C19.4173782,45.8073266 22.4221307,52.2598266 27.2213881,56.8210766 C27.8752,54.9576391 28.8211406,53.2332641 30.0035663,51.7035766 C26.8736158,48.2548266 24.9817347,43.6796703 24.9817347,38.6734203 C24.9817347,27.9377953 33.7177743,19.2046703 44.4569822,19.2046703 C55.1127248,19.2046703 63.9322297,27.1743422 63.9322297,38.4231078 C63.8487644,42.3585766 61.2335168,45.6960766 57.6445069,46.8502953 C57.0324277,47.0449828 56.4064376,47.1840453 55.7387149,47.2396703 C55.460497,47.2674828 55.1822792,47.2813891 54.8901505,47.2813891 L44.345695,47.2813891 C41.8278238,47.2813891 39.4490614,47.8793578 37.3485168,48.9640453 C37.3485168,48.9640453 36.7364376,49.2977953 35.8600515,49.9374828 C35.8044079,49.9652953 35.7487644,49.9931078 35.7070317,50.0348266 C35.540101,50.1460766 35.3731703,50.2712328 35.2062396,50.4102953 C34.8862891,50.6467016 34.5385168,50.9248266 34.1768337,51.2168578 C33.9542594,51.3976391 33.745596,51.5923266 33.5369327,51.8009203 L33.4256455,51.9121703 C31.1581703,54.1788891 29.6001505,57.1409203 29.0993584,60.4506078 C29.0576257,60.7009203 29.029804,60.9512328 29.0019822,61.2154516 C28.9741604,61.4518578 28.9602495,61.6743578 28.9463386,61.9107641 C28.9324277,62.2027953 28.9185168,62.4948266 28.9185168,62.7868578 C28.9185168,63.0232641 28.9185168,63.2457641 28.9324277,63.4821703 C28.9463386,63.7324828 28.9602495,63.9967016 28.9880713,64.2470141 C29.0158931,64.4973266 29.0437149,64.7337328 29.0715366,64.9701391 C29.155002,65.4568578 29.2384673,65.9296703 29.3497545,66.4024828 C31.0190614,73.1192016 37.1120317,78.1115453 44.345695,78.1115453 C48.0459921,78.1115453 51.4263386,76.8043578 54.0833188,74.6488891 C54.4589129,74.3290453 54.820596,74.0092016 55.1683683,73.6615453 C55.3631208,73.4668578 55.5578733,73.2582641 55.7526257,73.0496703 C56.0586653,72.7020141 56.3507941,72.3543578 56.6290119,71.9927953 C56.6290119,71.9788891 56.6429228,71.9788891 56.6429228,71.9788891 C58.534804,69.4062328 59.675497,66.2217016 59.675497,62.7868578 C59.675497,60.1585766 59.0077743,57.6832641 57.8392594,55.5138891 C57.6027743,55.5417016 57.3802,55.5556078 57.1437149,55.5556078 L51.3846059,55.5556078 C51.635002,55.8615453 51.8714871,56.1952953 52.1079723,56.5707641 C53.0678238,58.0309203 53.9163881,59.8804516 54.1250515,61.7577953 C54.180695,62.0637328 54.1946059,62.3835766 54.1946059,62.6895141 C54.1946059,68.1268578 49.7709426,72.5490453 44.345695,72.5490453 C38.9065366,72.5490453 34.4828733,68.1268578 34.4828733,62.6895141 C34.4828733,62.3418578 34.4967842,61.9942016 34.5385168,61.6465453 C34.7471802,59.7274828 35.4983683,57.9613891 36.6807941,56.5290453 C36.945101,56.1813891 37.2511406,55.8615453 37.5710911,55.5556078 C39.3238634,53.8729516 41.7165366,52.8438891 44.345695,52.8438891 L55.1544574,52.8438891 C55.2935663,52.8438891 55.4465861,52.8299828 55.585695,52.8299828 C55.724804,52.8160766 55.850002,52.8160766 55.9891109,52.8021703 C56.0725762,52.8021703 56.1560416,52.7882641 56.2395069,52.7882641 C56.4064376,52.7743578 56.5733683,52.7465453 56.7542099,52.7326391 C57.2410911,52.6631078 57.7140614,52.5796703 58.1870317,52.4684203 C58.4513386,52.4127953 58.7156455,52.3432641 58.9799525,52.2598266 C59.0634178,52.2459203 59.1607941,52.2181078 59.2442594,52.1902953 C65.1285663,50.3407641 69.4409426,44.8617016 69.4965861,38.3813891 L69.4965861,38.2423266 L69.4826752,38.2423266 C69.4826752,24.0454359 58.1174772,13.6421703 44.4569822,13.6421703" id="Fill-13" fill="#FFFFFF"></path>
                <path d="M10.375299,38.2421875 C10.375299,42.708875 13.6207099,46.4107188 17.8802248,47.1407969 C16.9231554,44.4916563 16.3736752,41.6478281 16.3736752,38.6732813 C16.3736752,35.35525 17.0386158,32.1929688 18.2182594,29.2907344 C13.793205,29.8789688 10.375299,33.6572969 10.375299,38.2421875" id="Fill-14" fill="#FFFFFF"></path>
                <path d="M71.0519629,29.2914297 C72.0090322,31.9419609 72.5571213,34.7843984 72.5571213,37.7589453 C72.5571213,41.0769766 71.7655916,44.3268672 70.2590421,47.1651328 C75.0694282,46.8174766 78.5568886,42.7749297 78.5568886,38.1900391 C78.5568886,33.7233516 75.3128688,30.0228984 71.0519629,29.2914297" id="Fill-15" fill="#FFFFFF"></path>
            </g>
        </g>
    </g>
</svg>